<?xml version="1.0" encoding="utf-8"?>
<!-- Generator: Adobe Illustrator 22.1.0, SVG Export Plug-In . SVG Version: 6.00 Build 0)  -->
<svg version="1.1" id="Layer_1" xmlns="http://www.w3.org/2000/svg" xmlns:xlink="http://www.w3.org/1999/xlink" x="0px" y="0px"
	 width="768px" height="1024px" viewBox="0 0 768 1024" style="enable-background:new 0 0 768 1024;" xml:space="preserve">
<g id="Layer_1_1_">
	<path d="M168,174.7H380v211.9H168V174.7z" fill="#000000" fill-opacity="0."/>
	<path d="M278,174.7c0,7.9,1,13.9,3,18.1c2,4.2,4.5,7.3,7.7,9.2c3.2,1.9,7.8,4,13.9,6.1c17.2,5.9,28.9,13.9,35.2,23.8
		c6.3,10,9.4,22.1,9.4,36.2c0,12.8-3.7,25.7-11,38.7l-5.8-2.4c5.5-9.3,8.3-20.8,8.3-34.5c0-12.2-5.7-22-17.2-29.3
		c-11.5-7.4-26-11-43.5-11v113.5c0,11.2-5.2,21.2-15.7,30.1c-10.5,8.9-21.9,13.4-34.4,13.4c-8.5,0-15.2-2-20-6
		c-4.8-4-7.2-9.6-7.2-16.7c0-11.2,5.2-21.2,15.7-30.1c10.5-8.9,22-13.4,34.5-13.4c6.8,0,12.4,1.4,16.9,4.1V174.7H278z" fill="#FFFFFF"/>
</g>
<g id="Layer_1_2_">
	<path d="M333.3,384.4l42.1-38.2L333.3,308V384.4z" fill="#FFFFFF"/>
	<path d="M311.2,364.8h-27c-2.2,0-4-1.8-4-4v-28.7c0-2.2,1.8-4,4-4h54.1c2.2,0,4,1.8,4,4v28.7c0,2.2-1.8,4-4,4H311.2z" fill="#FFFFFF"/>
</g>
</svg>
