<?xml version="1.0" standalone="no"?>
<!DOCTYPE svg PUBLIC "-//W3C//DTD SVG 20010904//EN"
 "http://www.w3.org/TR/2001/REC-SVG-20010904/DTD/svg10.dtd">
<svg version="1.0" xmlns="http://www.w3.org/2000/svg"
 width="88.000000pt" height="86.000000pt" viewBox="0 0 88.000000 86.000000"
 preserveAspectRatio="xMidYMid meet">

<g transform="translate(0.000000,86.000000) scale(0.100000,-0.100000)"
fill="#000000" stroke="none">
<path d="M10 430 l0 -420 433 0 432 0 -3 420 -2 420 -430 0 -430 0 0 -420z
m848 371 c4 -23 3 -23 -72 -19 -49 2 -75 0 -73 -7 2 -5 37 -11 77 -13 71 -3
73 -3 46 -17 -16 -8 -50 -15 -77 -15 -27 0 -49 -4 -49 -10 0 -14 123 -13 138
2 9 9 12 -7 12 -75 l0 -87 -90 0 c-53 0 -90 -4 -90 -10 0 -6 37 -10 90 -10
l90 0 0 -45 0 -45 -104 0 c-142 0 -149 -18 -9 -22 101 -3 108 -4 111 -24 3
-20 -2 -21 -111 -26 -161 -7 -170 -22 -17 -28 118 -5 125 -6 128 -26 3 -18 -4
-22 -44 -28 -26 -3 -98 -6 -160 -6 -62 0 -115 -4 -118 -9 -9 -15 222 -26 259
-12 62 22 66 18 63 -57 l-3 -67 -239 -5 c-146 -3 -241 -9 -243 -15 -2 -7 82
-9 242 -8 l245 3 0 -45 0 -45 -415 0 -415 0 0 400 0 400 413 -2 412 -3 3 -24z"/>
<path d="M764 655 c4 -12 -3 -15 -34 -15 -22 0 -40 -4 -40 -10 0 -6 31 -10 74
-10 l74 0 -11 25 c-9 18 -20 25 -41 25 -21 0 -27 -4 -22 -15z"/>
<path d="M710 480 c0 -6 26 -10 59 -10 33 0 63 5 66 10 4 6 -18 10 -59 10 -37
0 -66 -4 -66 -10z"/>
<path d="M580 230 c0 -6 50 -10 131 -10 84 0 128 4 124 10 -8 13 -255 13 -255
0z"/>
<path d="M485 160 c8 -14 335 -14 335 0 0 6 -64 10 -171 10 -111 0 -168 -3
-164 -10z"/>
<path d="M318 93 c-32 -2 -58 -8 -58 -13 0 -6 110 -10 280 -10 180 0 280 4
280 10 0 6 -69 10 -187 10 -104 0 -204 2 -223 4 -19 2 -61 1 -92 -1z"/>
</g>
</svg>
