<?xml version="1.0" encoding="utf-8"?>
<!DOCTYPE svg PUBLIC "-//W3C//DTD SVG 1.1//EN" "http://www.w3.org/Graphics/SVG/1.1/DTD/svg11.dtd">
<svg width="980px" height="599px" viewBox="0 0 980 599" style="background:rgb(253.98,253.98,239.7)" xmlns="http://www.w3.org/2000/svg" xmlns:xlink="http://www.w3.org/1999/xlink" version="1.1">
<g id="1" transform="matrix(1,0,0,1,0,0)">
<path d="M20,91H960.0M20,85H960.0M20,79H960.0M20,73H960.0M20,67H960.0M20,55H960.0M20,49H960.0M20,43H960.0M20,37H960.0M20,31H960.0M20,211H960.0M20,205H960.0M20,199H960.0M20,193H960.0M20,187H960.0M20,175H960.0M20,169H960.0M20,163H960.0M20,157H960.0M20,151H960.0M20,331H960.0M20,325H960.0M20,319H960.0M20,313H960.0M20,307H960.0M20,295H960.0M20,289H960.0M20,283H960.0M20,277H960.0M20,271H960.0M20,451H960.0M20,445H960.0M20,439H960.0M20,433H960.0M20,427H960.0M20,415H960.0M20,409H960.0M20,403H960.0M20,397H960.0M20,391H960.0M20,571H960.0M20,565H960.0M20,559H960.0M20,553H960.0M20,547H960.0M20,535H960.0M20,529H960.0M20,523H960.0M20,517H960.0M20,511H960.0" stroke="rgb(0,0,0)" stroke-width="0.8" fill="rgb(0,0,0)" transform="matrix(1,0,0,1,0,0)"/>
<line x1="960" y1="31" x2="960" y2="571" stroke="rgb(0,0,0)" stroke-width="0.6" stroke-dasharray="none" stroke-opacity="1.0" transform="matrix(1,0,0,1,0,0)"/>
<line x1="20" y1="31" x2="20" y2="571" stroke="rgb(0,0,0)" stroke-width="0.6" stroke-opacity="1.0" transform="matrix(1,0,0,1,0,0)"/>
<text x="0" y="0" font-family="Bravura" font-style="normal" font-weight="normal" font-size="24" fill="rgb(0,0,0)" fill-opacity="1" transform="matrix(1,0,0,1,22,49.959999084472656)" ></text>
<text x="0" y="0" font-family="Bravura" font-style="normal" font-weight="normal" font-size="24" fill="rgb(0,0,0)" fill-opacity="1" transform="matrix(1,0,0,1,22,169.9600067138672)" ></text>
<text x="0" y="0" font-family="Bravura" font-style="normal" font-weight="normal" font-size="24" fill="rgb(0,0,0)" fill-opacity="1" transform="matrix(1,0,0,1,22,289.9599914550781)" ></text>
<text x="0" y="0" font-family="Bravura" font-style="normal" font-weight="normal" font-size="24" fill="rgb(0,0,0)" fill-opacity="1" transform="matrix(1,0,0,1,22,409.9599914550781)" ></text>
<text x="0" y="0" font-family="Bravura" font-style="normal" font-weight="normal" font-size="24" fill="rgb(0,0,0)" fill-opacity="1" transform="matrix(1,0,0,1,22,529.9600219726562)" ></text>
<text x="33" y="103" font-family="Bravura" font-size="24" font-style="normal" font-weight="normal" text-decoration="none" fill="rgb(0,0,0)" fill-opacity="1" transform="matrix(1,0,0,1,-10.5,-29.5)"> </text>
<text x="33" y="103" font-family="Bravura" font-size="24" font-style="normal" font-weight="normal" text-decoration="none" fill="rgb(0,0,0)" fill-opacity="1" transform="matrix(1,0,0,1,-10.5,90)"> </text>
<text x="33" y="103" font-family="Bravura" font-size="24" font-style="normal" font-weight="normal" text-decoration="none" fill="rgb(0,0,0)" fill-opacity="1" transform="matrix(1,0,0,1,-10.5,210)"> </text>
<text x="33" y="103" font-family="Bravura" font-size="24" font-style="normal" font-weight="normal" text-decoration="none" fill="rgb(0,0,0)" fill-opacity="1" transform="matrix(1,0,0,1,-10.5,330)"> </text>
<text x="33" y="103" font-family="Bravura" font-size="24" font-style="normal" font-weight="normal" text-decoration="none" fill="rgb(0,0,0)" fill-opacity="1" transform="matrix(1,0,0,1,-10.5,450)"> </text>
</g>
</svg>
