<?xml version="1.0" encoding="utf-8"?>
<!DOCTYPE svg PUBLIC "-//W3C//DTD SVG 1.1//EN" "http://www.w3.org/Graphics/SVG/1.1/DTD/svg11.dtd">
<svg width="842px" height="595px" viewBox="0 0 842 595" style="background:rgb(253.98,253.98,239.7)" xmlns="http://www.w3.org/2000/svg" xmlns:xlink="http://www.w3.org/1999/xlink" version="1.1">
<g id="1" transform="matrix(1,0,0,1,0,0)">
<line id="Picster-Element_1607938352549" x1="583" y1="128" x2="582" y2="128" stroke="rgb(255,0,0)" stroke-width="3" stroke-opacity="1" transform="matrix(1,0,0,1,0,0)"/>
<text id="Picster-Element_1607984727513" x="0" y="0" font-family="Arial" font-size="12" font-style="normal" font-weight="normal" text-anchor="start" text-decoration="none" fill="rgb(0,0,0)" fill-opacity="1" transform="matrix(1,0,0,1,52,66)">Preset 4 - area around Node 7 - static/chordlike</text>
<line id="Picster-Element_1607984989581" x1="299" y1="83" x2="298" y2="83" stroke="rgb(0,0,0)" stroke-width="1" stroke-opacity="1" transform="matrix(1,0,0,1,0,0)"/>
<line id="Picster-Element_1607985211964" x1="45" y1="70" x2="823" y2="70" stroke="rgb(251.4927425980568,1.815800964832306,6.995718162506819)" stroke-width="1" stroke-opacity="1" transform="matrix(1,0,0,1,0,0)"/>
<text id="Picster-Element_1607984824372" x="0" y="0" font-family="Arial" font-size="12" font-style="normal" font-weight="normal" text-anchor="start" text-decoration="none" fill="rgb(0,0,0)" fill-opacity="1" transform="matrix(1,0,0,1,141,165)">Preset 4 - area around Node 7 - canonic imitation of Player 1</text>
<line id="Picster-Element_1607985229089" x1="141" y1="173" x2="823" y2="172" stroke="rgb(15.174991115927696,127.9921343922615,254.6059611439705)" stroke-width="1" stroke-opacity="1" transform="matrix(1,0,0,1,0,-2)"/>
<text id="Picster-Element_1607984940231" x="0" y="0" font-family="Arial" font-size="12" font-style="normal" font-weight="normal" text-anchor="start" text-decoration="none" fill="rgb(0,0,0)" fill-opacity="1" transform="matrix(1,0,0,1,232,273)">Preset 4 - area around Node 7 - canonic imitation of Player 2</text>
<line id="Picster-Element_1607985242095" x1="232" y1="259" x2="823" y2="260" stroke="rgb(252.56349474191666,128.0681151151657,8.387307990342379)" stroke-width="1" stroke-opacity="1" transform="matrix(1,0,0,1,0,20)"/>
<text id="Picster-Element_1607984954031" x="0" y="0" font-family="Arial" font-size="12" font-style="normal" font-weight="normal" text-anchor="start" text-decoration="none" fill="rgb(0,0,0)" fill-opacity="1" transform="matrix(1,0,0,1,320,399)">Preset 4 - area around Node 7 - canonic imitation of Player 3</text>
<line id="Picster-Element_1607985298474" x1="320" y1="362" x2="822" y2="362" stroke="rgb(33.492926582694054,254.91769641637802,6.024141646921635)" stroke-width="1" stroke-opacity="1" transform="matrix(1,0,0,1,0,44)"/>
<text id="Picster-Element_1607984963779" x="0" y="0" font-family="Arial" font-size="12" font-style="normal" font-weight="normal" text-anchor="start" text-decoration="none" fill="rgb(0,0,0)" fill-opacity="1" transform="matrix(1,0,0,1,410,518)">Preset 4 - area around Node 7 - canonic imitation of Player 4</text>
<line id="Picster-Element_1607985317442" x1="410" y1="458" x2="822" y2="458" stroke="rgb(128.00145149230957,0.37763893604278564,254.61778610944748)" stroke-width="1" stroke-opacity="1" transform="matrix(1,0,0,1,0,68)"/>
</g>
</svg>
