<?xml version="1.0" encoding="utf-8"?>
<!DOCTYPE svg PUBLIC "-//W3C//DTD SVG 1.1//EN" "http://www.w3.org/Graphics/SVG/1.1/DTD/svg11.dtd">
<svg width="2440px" height="595px" viewBox="0 0 2440 595" style="background:rgb(253.98,253.98,239.7)" xmlns="http://www.w3.org/2000/svg" xmlns:xlink="http://www.w3.org/1999/xlink" version="1.1">
<g id="1" transform="matrix(1,0,0,1,0,0)">
<line id="Picster-Element_1609184494096" x1="0" y1="0" x2="930" y2="0" stroke="rgb(251.4927425980568,1.815800964832306,6.995718162506819)" stroke-width="2" stroke-opacity="1" transform="matrix(1,0,0,1,19.960519790649414,53.7442512512207)"/>
<text id="Picster-Element_1609184725067" x="0" y="0" font-family="Arial" font-size="12" font-style="normal" font-weight="normal" text-anchor="start" text-decoration="none" fill="rgb(0,0,0)" fill-opacity="1" transform="matrix(1,0,0,1,19.25,47.75)">Preset 4 - area around Node 7 - static / chordlike</text>
<text id="Picster-Element_1607984824372" x="0" y="0" font-family="Arial" font-size="12" font-style="normal" font-weight="normal" text-anchor="start" text-decoration="none" fill="rgb(0,0,0)" fill-opacity="1" transform="matrix(1,0,0,1,193.3333282470703,166.5833282470703)">Preset 4 - area around Node 7 - canonic imitation of Player 1</text>
<line id="Picster-Element_1607985229089" x1="141" y1="173" x2="898" y2="172" stroke="rgb(15.174991115927696,127.9921343922615,254.6059611439705)" stroke-width="2" stroke-opacity="1" transform="matrix(1,0,0,1,52.5,0.5)"/>
<line id="Picster-Element_1609180686292" x1="0" y1="0" x2="0" y2="-0.833333300219635" stroke="rgb(0,0,0)" stroke-width="1" stroke-opacity="1" transform="matrix(1,0,0,1,446.6666564941406,302.5)"/>
<text id="Picster-Element_1607984940231" x="0" y="0" font-family="Arial" font-size="12" font-style="normal" font-weight="normal" text-anchor="start" text-decoration="none" fill="rgb(0,0,0)" fill-opacity="1" transform="matrix(1,0,0,1,281.4166564941406,280.8333435058594)">Preset 4 - area around Node 7 - canonic imitation of Player 2</text>
<line id="Picster-Element_1607985242095" x1="232" y1="259" x2="900" y2="260" stroke="rgb(252.56349474191666,128.0681151151657,8.387307990342379)" stroke-width="2" stroke-opacity="1" transform="matrix(1,0,0,1,50.08333206176758,27.91666603088379)"/>
<line id="Picster-Element_1609154236372" x1="0" y1="0" x2="0" y2="1" stroke="rgb(0,0,0)" stroke-width="1" stroke-opacity="1" transform="matrix(1,0,0,1,654,78)"/>
<text id="Picster-Element_1607984954031" x="0" y="0" font-family="Arial" font-size="12" font-style="normal" font-weight="normal" text-anchor="start" text-decoration="none" fill="rgb(0,0,0)" fill-opacity="1" transform="matrix(1,0,0,1,377.5,406.625)">Preset 4 - area around Node 7 - canonic imitation of Player 3</text>
<line id="Picster-Element_1607985298474" x1="320" y1="362" x2="890" y2="362" stroke="rgb(33.492926582694054,254.91769641637802,6.024141646921635)" stroke-width="3" stroke-opacity="1" transform="matrix(1,0,0,1,58,51)"/>
<text id="Picster-Element_1607984963779" x="0" y="0" font-family="Arial" font-size="12" font-style="normal" font-weight="normal" text-anchor="start" text-decoration="none" fill="rgb(0,0,0)" fill-opacity="1" transform="matrix(1,0,0,1,468,530)">Preset 4 - area around Node 7 - canonic imitation of Player 4</text>
<line id="Picster-Element_1607985317442" x1="410" y1="458" x2="892" y2="458" stroke="rgb(128.00145149230957,0.37763893604278564,254.61778610944748)" stroke-width="2" stroke-opacity="1" transform="matrix(1,0,0,1,58,77)"/>
<line id="Picster-Element_1609183756712" x1="0" y1="0" x2="-0.5" y2="0" stroke="rgb(0,0,0)" stroke-width="1" stroke-opacity="1" transform="matrix(1,0,0,1,700.9684448242188,402.5981140136719)"/>
<text id="Picster-Element_1609185132007" x="0" y="0" font-family="Arial" font-size="12" font-style="normal" font-weight="normal" text-anchor="start" text-decoration="none" fill="rgb(0,0,0)" fill-opacity="1" transform="matrix(1,0,0,1,1065,46)">SOLO - ad libitum</text>
<line id="Picster-Element_1609185159464" x1="0" y1="0" x2="123" y2="-0.5" stroke="rgb(251.4927425980568,1.815800964832306,6.995718162506819)" stroke-width="2" stroke-opacity="1" transform="matrix(1,0,0,1,1065.7149658203125,50.18390655517578)"/>
<text id="Picster-Element_1609185244513" x="0" y="0" font-family="Arial" font-size="12" font-style="normal" font-weight="normal" text-anchor="start" text-decoration="none" fill="rgb(0,0,0)" fill-opacity="1" transform="matrix(1,0,0,1,1244.5,160)">SOLO - ad libitum</text>
<line id="Picster-Element_1609185432238" x1="0" y1="0" x2="-1" y2="0" stroke="rgb(0,0,0)" stroke-width="1" stroke-opacity="1" transform="matrix(1,0,0,1,1053.2294921875,229)"/>
<line id="Picster-Element_1609185753935" x1="0" y1="0" x2="134" y2="0" stroke="rgb(15.174991115927696,127.9921343922615,254.6059611439705)" stroke-width="2" stroke-opacity="1" transform="matrix(1,0,0,1,1243.843017578125,164.72988891601562)"/>
<text id="Picster-Element_1609185347290" x="0" y="0" font-family="Arial" font-size="12" font-style="normal" font-weight="normal" text-anchor="start" text-decoration="none" fill="rgb(0,0,0)" fill-opacity="1" transform="matrix(1,0,0,1,1370,281)">SOLO - ad libitum</text>
<line id="Picster-Element_1609185361693" x1="0" y1="0" x2="-0.833333300219692" y2="0" stroke="rgb(0,0,0)" stroke-width="2" stroke-opacity="1" transform="matrix(1,0,0,1,1591.4337158203125,725.5172119140625)"/>
<line id="Picster-Element_1609185787115" x1="0" y1="0" x2="149" y2="-1" stroke="rgb(252.56349474191666,128.0681151151657,8.387307990342379)" stroke-width="2" stroke-opacity="1" transform="matrix(1,0,0,1,1369.843017578125,285.7298889160156)"/>
<text id="Picster-Element_1609185825526" x="0" y="0" font-family="Arial" font-size="12" font-style="normal" font-weight="normal" text-anchor="start" text-decoration="none" fill="rgb(0,0,0)" fill-opacity="1" transform="matrix(1,0,0,1,1149,396)">SOLO - ad libitum</text>
<line id="Picster-Element_1609185851290" x1="0" y1="0" x2="125" y2="0" stroke="rgb(33.492926582694054,254.91769641637802,6.024141646921635)" stroke-width="2" stroke-opacity="1" transform="matrix(1,0,0,1,1153.843017578125,406.7298889160156)"/>
<line id="Picster-Element_1609185893280" x1="0" y1="0" x2="-1" y2="0" stroke="rgb(33.492926582694054,254.91769641637802,6.024141646921635)" stroke-width="2" stroke-opacity="1" transform="matrix(1,0,0,1,1345.843017578125,523.7298583984375)"/>
<text id="Picster-Element_1607985369835" x="0" y="0" font-family="Arial" font-size="12" font-style="normal" font-weight="normal" text-anchor="start" text-decoration="none" fill="rgb(0,0,0)" fill-opacity="1" transform="matrix(1,0,0,1,950,525)">SOLO - ad libitum</text>
<line id="Picster-Element_1607985486977" x1="48" y1="452" x2="183" y2="451" stroke="rgb(128.00145149230957,0.37763893604278564,254.61778610944748)" stroke-width="2" stroke-opacity="1" transform="matrix(1,0,0,1,901.75,78.5)"/>
<text id="Picster-Element_1607986292480" x="0" y="0" font-family="Arial" font-size="12" font-style="normal" font-weight="normal" text-anchor="start" text-decoration="none" fill="rgb(0,0,0)" fill-opacity="1" transform="matrix(1,0,0,1,1519.75,60)">Preset 3 - area:

  rhythmical / clicking</text>
<line id="Picster-Element_1607986458890" x1="162" y1="52" x2="198" y2="52" stroke="rgb(251.4927425980568,1.815800964832306,6.995718162506819)" stroke-width="2" stroke-opacity="1" transform="matrix(1,0,0,1,1501,-2.5)"/>
<line id="Picster-Element_1607986464236" x1="493" y1="53" x2="535" y2="53" stroke="rgb(251.4927425980568,1.815800964832306,6.995718162506819)" stroke-width="2" stroke-opacity="1" transform="matrix(1,0,0,1,1349,-4.5)"/>
<line id="Picster-Element_1607986466983" x1="654" y1="54" x2="682" y2="54" stroke="rgb(251.4927425980568,1.815800964832306,6.995718162506819)" stroke-width="2" stroke-opacity="1" transform="matrix(1,0,0,1,1324.5,-3.5)"/>
<text id="Picster-Element_1607986290413" x="0" y="0" font-family="Arial" font-size="12" font-style="normal" font-weight="normal" text-anchor="start" text-decoration="none" fill="rgb(0,0,0)" fill-opacity="1" transform="matrix(1,0,0,1,1520,180)">Preset 3 - area:

  rhythmical / clicking</text>
<line id="Picster-Element_1607986430701" x1="208" y1="159" x2="402" y2="159" stroke="rgb(15.174991115927696,127.9921343922615,254.6059611439705)" stroke-width="2" stroke-opacity="1" transform="matrix(1,0,0,1,1468,11)"/>
<line id="Picster-Element_1609189726014" x1="0" y1="0" x2="46.923078644205134" y2="0.384615398722985" stroke="rgb(15.174991115927696,127.9921343922615,254.6059611439705)" stroke-width="2" stroke-opacity="1" transform="matrix(1,0,0,1,1935.1029052734375,170.5601348876953)"/>
<text id="Picster-Element_1607986288258" x="0" y="0" font-family="Arial" font-size="12" font-style="normal" font-weight="normal" text-anchor="start" text-decoration="none" fill="rgb(0,0,0)" fill-opacity="1" transform="matrix(1,0,0,1,1520.5,298.5)">Preset 3 - area:

  rhythmical / clicking </text>
<line id="Picster-Element_1607986408516" x1="44" y1="251" x2="243" y2="251" stroke="rgb(252.56349474191666,128.0681151151657,8.387307990342379)" stroke-width="2" stroke-opacity="1" transform="matrix(1,0,0,1,1474.5,44.5)"/>
<line id="Picster-Element_1607986493518" x1="540" y1="250" x2="584" y2="250" stroke="rgb(252.56349474191666,128.0681151151657,8.387307990342379)" stroke-width="2" stroke-opacity="1" transform="matrix(1,0,0,1,1352.5,37)"/>
<text id="Picster-Element_1607986285090" x="0" y="0" font-family="Arial" font-size="12" font-style="normal" font-weight="normal" text-anchor="start" text-decoration="none" fill="rgb(0,0,0)" fill-opacity="1" transform="matrix(1,0,0,1,1520,416)">Preset 3 - area:

  rhythmical / clicking</text>
<line id="Picster-Element_1609186194426" x1="0" y1="0" x2="137" y2="0" stroke="rgb(33.492926582694054,254.91769641637802,6.024141646921635)" stroke-width="2" stroke-opacity="1" transform="matrix(1,0,0,1,1922.724609375,407.9310302734375)"/>
<line id="Picster-Element_1609190201219" x1="0" y1="0" x2="88" y2="0" stroke="rgb(33.492926582694054,254.91769641637802,6.024141646921635)" stroke-width="2" stroke-opacity="1" transform="matrix(1,0,0,1,1763.1815185546875,409)"/>
<text id="Picster-Element_1607986282394" x="0" y="0" font-family="Arial" font-size="12" font-style="normal" font-weight="normal" text-anchor="start" text-decoration="none" fill="rgb(0,0,0)" fill-opacity="1" transform="matrix(1,0,0,1,1520,538.75)">Preset 3 - area:

  rhythmical / clicking</text>
<line id="Picster-Element_1607986606369" x1="45" y1="444" x2="96" y2="444" stroke="rgb(128.00145149230957,0.37763893604278564,254.61778610944748)" stroke-width="2" stroke-opacity="1" transform="matrix(1,0,0,1,1473.75,90)"/>
<line id="Picster-Element_1607986634675" x1="651" y1="445" x2="735" y2="446" stroke="rgb(128.00145149230957,0.37763893604278564,254.61778610944748)" stroke-width="2" stroke-opacity="1" transform="matrix(1,0,0,1,1316,81.5)"/>
<line id="Picster-Element_1607986667395" x1="494" y1="447" x2="517" y2="447" stroke="rgb(128.00145149230957,0.37763893604278564,254.61778610944748)" stroke-width="2" stroke-opacity="1" transform="matrix(1,0,0,1,1366.5,81.75)"/>
<line id="Picster-Element_1607986703374" x1="237" y1="444" x2="340" y2="444" stroke="rgb(128.00145149230957,0.37763893604278564,254.61778610944748)" stroke-width="2" stroke-opacity="1" transform="matrix(1,0,0,1,1471.75,84.75)"/>
<text id="Picster-Element_1607988025477" x="0" y="0" font-family="Arial" font-size="7" font-style="normal" font-weight="normal" text-anchor="start" text-decoration="none" fill="rgb(0,0,0)" fill-opacity="1" transform="matrix(1,0,0,1,2301.5,47.5)">repeat your chosen pattern till the end</text>
<text id="Picster-Element_1607988222460" x="0" y="0" font-family="Arial" font-size="7" font-style="normal" font-weight="normal" text-anchor="start" text-decoration="none" fill="rgb(0,0,0)" fill-opacity="1" transform="matrix(1,0,0,1,2060.375,46.625)">chaotic search for a simple pattern</text>
<text id="Picster-Element_1607988601312" x="0" y="0" font-family="Arial" font-size="16" font-style="normal" font-weight="normal" text-anchor="start" text-decoration="none" fill="rgb(251.4927425980568,1.815800964832306,6.995718162506819)" fill-opacity="1" transform="matrix(1,0,0,1,2059.625,62.625)">WWWWWWWWWWWWWWWW...........................</text>
<line id="Picster-Element_1607988606643" x1="370" y1="86" x2="369" y2="86" stroke="rgb(251.4927425980568,1.815800964832306,6.995718162506819)" stroke-width="1" stroke-opacity="1" transform="matrix(1,0,0,1,2040,0)"/>
<line id="Picster-Element_1609191218939" x1="0" y1="0" x2="0" y2="0.624999990686774" stroke="rgb(16.68149057775736,127.96272397041321,64.0054602921009)" stroke-width="2" stroke-opacity="1" transform="matrix(1,0,0,1,2317.94140625,90.23563385009766)"/>
<text id="Picster-Element_1607988059963" x="0" y="0" font-family="Arial" font-size="7" font-style="normal" font-weight="normal" text-anchor="start" text-decoration="none" fill="rgb(0,0,0)" fill-opacity="1" transform="matrix(1,0,0,1,2257.25,170.5)">repeat your chosen pattern till the end</text>
<text id="Picster-Element_1607988309484" x="0" y="0" font-family="Arial" font-size="7" font-style="normal" font-weight="normal" text-anchor="start" text-decoration="none" fill="rgb(0,0,0)" fill-opacity="1" transform="matrix(1,0,0,1,2059.03857421875,167.7788543701172)">chaotic search for a simple pattern</text>
<text id="Picster-Element_1607988551490" x="0" y="0" font-family="Arial" font-size="16" font-style="normal" font-weight="normal" text-anchor="start" text-decoration="none" fill="rgb(15.174991115927696,127.9921343922615,254.6059611439705)" fill-opacity="1" transform="matrix(1,0,0,1,2059.144287109375,183.25961303710938)">WWWWWWWWWWWWW.....................................</text>
<line id="Picster-Element_1607987608351" x1="265" y1="284" x2="264" y2="284" stroke="rgb(252.56349474191666,128.0681151151657,8.387307990342379)" stroke-width="1" stroke-opacity="1" transform="matrix(1,0,0,1,2040,20)"/>
<text id="Picster-Element_1607988069345" x="0" y="0" font-family="Arial" font-size="7" font-style="normal" font-weight="normal" text-anchor="start" text-decoration="none" fill="rgb(0,0,0)" fill-opacity="1" transform="matrix(1,0,0,1,2183.625,288.375)">repeat your chosen pattern till the end</text>
<text id="Picster-Element_1607988297753" x="0" y="0" font-family="Arial" font-size="7" font-style="normal" font-weight="normal" text-anchor="start" text-decoration="none" fill="rgb(0,0,0)" fill-opacity="1" transform="matrix(1,0,0,1,2061.25,286.875)">chaotic search for a simple pattern</text>
<text id="Picster-Element_1607988383797" x="0" y="0" font-family="Arial" font-size="16" font-style="normal" font-weight="normal" text-anchor="start" text-decoration="none" fill="rgb(252.56349474191666,128.0681151151657,8.387307990342379)" fill-opacity="1" transform="matrix(1,0,0,1,2061,300.75)">WWWWWWWW......................................................</text>
<line id="Picster-Element_1607988389984" x1="227" y1="254" x2="226" y2="254" stroke="rgb(252.56349474191666,128.0681151151657,8.387307990342379)" stroke-width="1" stroke-opacity="1" transform="matrix(1,0,0,1,2040,20)"/>
<text id="Picster-Element_1607988076854" x="0" y="0" font-family="Arial" font-size="7" font-style="normal" font-weight="normal" text-anchor="start" text-decoration="none" fill="rgb(0,0,0)" fill-opacity="1" transform="matrix(1,0,0,1,2226.75,406.625)">repeat your chosen pattern till the end</text>
<text id="Picster-Element_1607988318347" x="0" y="0" font-family="Arial" font-size="7" font-style="normal" font-weight="normal" text-anchor="start" text-decoration="none" fill="rgb(0,0,0)" fill-opacity="1" transform="matrix(1,0,0,1,2060.625,406.625)">chaotic search for a simple pattern</text>
<text id="Picster-Element_1607988644663" x="0" y="0" font-family="Arial" font-size="16" font-style="normal" font-weight="normal" text-anchor="start" text-decoration="none" fill="rgb(33.492926582694054,254.91769641637802,6.024141646921635)" fill-opacity="1" transform="matrix(1,0,0,1,2060.5,421.5)">WWWWWWWWWWW............................................</text>
<text id="Picster-Element_1607988084996" x="0" y="0" font-family="Arial" font-size="7" font-style="normal" font-weight="normal" text-anchor="start" text-decoration="none" fill="rgb(0,0,0)" fill-opacity="1" transform="matrix(1,0,0,1,2289,525.375)">repeat your chosen pattern till the end</text>
<text id="Picster-Element_1607988325010" x="0" y="0" font-family="Arial" font-size="7" font-style="normal" font-weight="normal" text-anchor="start" text-decoration="none" fill="rgb(0,0,0)" fill-opacity="1" transform="matrix(1,0,0,1,2059.75,527.5)">chaotic search for a simple pattern</text>
<text id="Picster-Element_1607988677240" x="0" y="0" font-family="Arial" font-size="16" font-style="normal" font-weight="normal" text-anchor="start" text-decoration="none" fill="rgb(128.00145149230957,0.37763893604278564,254.61778610944748)" fill-opacity="1" transform="matrix(1,0,0,1,2060,541.75)">WWWWWWWWWWWWWWW...............................</text>
<ellipse id="Picster-Element_1609187973721" cx="-0.5" cy="0" rx="-0.5" ry="0" stroke="rgb(33.492926582694054,254.91769641637802,6.024141646921635)" stroke-width="2" stroke-opacity="1" fill="none" fill-opacity="1" transform="matrix(1,0,0,1,2655.599853515625,61.36781692504883)"/>
<image x="0" y="0" width="88" height="86" xlink:href="/media/project/fig1-2.svg" transform="matrix(0.5,0,0,0.5,1602,9.5)"/>
<image x="0" y="0" width="88" height="86" xlink:href="/media/project/fig1-2.svg" transform="matrix(0.5,0,0,0.5,1602.5,129)"/>
<image x="0" y="0" width="88" height="86" xlink:href="/media/project/fig1-2.svg" transform="matrix(0.5,0,0,0.5,1603,247)"/>
<image x="0" y="0" width="88" height="86" xlink:href="/media/project/fig1-2.svg" transform="matrix(0.5,0,0,0.5,1602.5,366)"/>
<image x="0" y="0" width="88" height="86" xlink:href="/media/project/fig1-2.svg" transform="matrix(0.5,0,0,0.5,1602.5,488)"/>
</g>
</svg>
