<?xml version="1.0" encoding="UTF-8"?>
<!DOCTYPE svg PUBLIC "-//W3C//DTD SVG 1.1//EN" "http://www.w3.org/Graphics/SVG/1.1/DTD/svg11.dtd">
<svg version="1.1" xmlns="http://www.w3.org/2000/svg" xmlns:xlink="http://www.w3.org/1999/xlink" x="0" y="0" width="768" height="1024" viewBox="0, 0, 768, 1024">
  <defs>
    <filter id="Shadow_1">
      <feGaussianBlur in="SourceAlpha" stdDeviation="2.5"/>
      <feOffset dx="0" dy="2" result="offsetblur"/>
      <feFlood flood-color="#000000"/>
      <feComposite in2="offsetblur" operator="in"/>
    </filter>
  </defs>
  <g id="Layer_1">
    <path d="M297.5,203.945 C358.5,344.063 336.899,63.826 385.5,63.826" fill-opacity="0" stroke="#000000" stroke-width="1"/>
    <path d="M0.5,0.5 L0.5,0.5" fill-opacity="0" stroke="#000000" stroke-width="1"/>
    <path d="M498.5,362.5 C498.5,362.5 355.471,603.031 291.5,304.5 C288.5,290.5 497.5,476.06 498.5,362.5 z" fill-opacity="0" stroke="#000000" stroke-width="1"/>
    <path d="M323.167,217.381 C323.167,217.381 261.053,303.755 327.049,215.461 C393.045,127.167 509.508,163.637 509.508,163.637 C459.041,48.471 641.5,63.826 641.5,63.826" fill-opacity="0" stroke="#000000" stroke-width="1"/>
    <path d="M58.892,132.022 L59.044,131.839 L59.218,131.607 L59.377,131.354 L59.594,131.023 L59.868,130.624 L60.195,130.166 L60.573,129.653 L60.973,129.089 L61.415,128.477 L61.898,127.821 L62.422,127.123 L62.984,126.388 L63.582,125.616 L64.212,124.81 L64.865,123.972 L65.548,123.104 L66.26,122.209 L66.997,121.288 L67.759,120.345 L68.544,119.381 L69.758,117.895 L71.435,115.857 L73.168,113.776 L74.947,111.66 L77.675,108.451 L80.429,105.26 L82.251,103.17 L84.055,101.116 L85.821,99.121 L87.552,97.206 L88.806,95.831 L89.617,94.948 L90.41,94.088 L91.189,93.262 L91.946,92.469 L92.677,91.712 L93.383,90.992 L94.055,90.309 L94.692,89.666 L95.293,89.066 L95.854,88.512 L96.372,88.006 L96.843,87.551 L97.263,87.154 L97.628,86.819 L97.927,86.554 L98.148,86.371 L98.268,86.284 L98.253,86.321 L98.019,86.528 L97.394,86.973 L96.022,87.634 L94.466,87.806 L93.834,87.562 L93.887,87.602 L93.662,87.445 L93.521,87.284 L93.473,87.251 L93.456,87.337 L93.442,87.525 L93.42,87.801 L93.386,88.153 L93.338,88.572 L93.275,89.052 L93.196,89.589 L93.102,90.175 L92.995,90.81 L92.878,91.486 L92.749,92.202 L92.609,92.957 L92.388,94.153 L92.068,95.848 L91.737,97.635 L91.403,99.498 L91.074,101.421 L90.772,103.378 L90.392,106.33 L90.128,109.255 L90.037,111.162 L89.976,113.025 L89.956,114.83 L89.969,116.569 L90.003,117.827 L90.019,118.652 L90.046,119.445 L90.085,120.212 L90.139,120.95 L90.206,121.658 L90.289,122.335 L90.381,122.984 L90.483,123.604 L90.606,124.188 L90.751,124.735 L90.922,125.244 L91.121,125.713 L91.353,126.141 L91.626,126.524 L91.947,126.858 L92.324,127.14 L92.776,127.352 L93.319,127.477 L93.963,127.488 L94.707,127.363 L95.526,127.09 L96.062,126.85 L96.062,126.85 C96.133,126.817 96.204,126.781 96.276,126.743 L96.276,126.743 L96.443,126.648 L97.083,126.25 L97.787,125.739 L98.444,125.194 L99.057,124.627 L99.637,124.044 L100.195,123.449 L100.735,122.837 L101.263,122.208 L101.784,121.559 L102.301,120.891 L102.816,120.202 L103.581,119.144 L104.631,117.658 L105.705,116.087 L106.8,114.452 L107.91,112.765 L109.036,111.035 L110.746,108.392 L113.062,104.833 L114.802,102.211 L115.955,100.518 L117.098,98.877 L118.225,97.309 L119.337,95.834 L120.411,94.469 L121.445,93.235 L122.167,92.43 L122.612,91.958 L123.051,91.513 L123.465,91.117 L123.848,90.774 L124.195,90.486 L124.503,90.254 L124.766,90.077 L124.984,89.954 L125.155,89.875 L125.286,89.834 L125.388,89.82 L125.473,89.823 L125.558,89.838 L125.658,89.864 L125.779,89.908 L125.927,89.978 L126.098,90.087 L126.159,90.14 L126.109,90.107 L126.252,90.214 L126.47,90.406 L126.656,90.61 L126.832,90.841 L126.998,91.099 L127.153,91.383 L127.296,91.693 L127.429,92.03 L127.611,92.594 L127.812,93.423 L127.972,94.325 L128.103,95.301 L128.203,96.346 L128.281,97.449 L128.377,99.196 L128.504,101.618 L128.665,104.095 L128.839,105.959 L129.01,107.182 L129.22,108.371 L129.477,109.527 L129.79,110.639 L130.167,111.698 L130.506,112.456 L130.761,112.944 L131.033,113.402 L131.327,113.839 L131.646,114.254 L131.99,114.645 L132.36,115.01 L132.759,115.349 L133.186,115.658 L133.643,115.936 L134.132,116.182 L134.653,116.393 L135.207,116.569 L135.794,116.706 L136.416,116.804 L137.072,116.862 L137.764,116.876 L138.49,116.848 L139.252,116.775 L140.048,116.656 L140.48,116.576 L140.48,116.576 C140.511,116.571 140.543,116.566 140.575,116.559 L140.575,116.559 L140.681,116.533 L141.124,116.398 L141.64,116.183 L142.145,115.92 L142.635,115.622 L143.109,115.3 L143.57,114.956 L144.024,114.593 L144.474,114.212 L144.92,113.814 L145.576,113.199 L146.474,112.309 L147.401,111.342 L148.349,110.317 L149.321,109.245 L150.31,108.124 L151.312,106.964 L152.829,105.172 L154.887,102.727 L156.929,100.27 L158.425,98.468 L159.395,97.305 L160.334,96.185 L161.232,95.114 L162.093,94.105 L162.898,93.164 L163.64,92.302 L164.158,91.719 L164.48,91.365 L164.782,91.035 L165.061,90.733 L165.316,90.463 L165.543,90.225 L165.739,90.025 L165.9,89.868 L166.019,89.758 L166.082,89.71 L166.064,89.741 L165.911,89.887 L165.49,90.203 L164.569,90.618 L163.741,90.579 L163.524,90.413 L163.573,90.483 L163.59,90.568 L163.603,90.686 L163.624,90.868 L163.642,91.111 L163.652,91.41 L163.652,91.76 L163.642,92.157 L163.62,92.599 L163.588,93.082 L163.52,93.884 L163.433,95.045 L163.318,96.319 L163.179,97.696 L163.054,99.143 L162.93,100.654 L162.803,102.22 L162.649,104.621 L162.531,107.059 L162.477,108.691 L162.452,110.299 L162.46,111.877 L162.505,113.412 L162.595,114.89 L162.735,116.299 L162.88,117.312 L162.999,117.963 L163.134,118.58 L163.287,119.172 L163.46,119.736 L163.654,120.271 L163.871,120.776 L164.113,121.248 L164.383,121.687 L164.685,122.088 L165.02,122.45 L165.394,122.769 L165.811,123.041 L166.277,123.259 L166.798,123.417 L167.377,123.505 L168.018,123.516 L168.721,123.439 L169.481,123.268 L170.288,123 L171.133,122.636 L172.001,122.181 L172.517,121.877 L172.517,121.877 C172.563,121.85 172.609,121.821 172.654,121.792 L172.654,121.792 L172.82,121.686 L173.336,121.336 L173.897,120.927 L174.446,120.5 L174.986,120.055 L175.521,119.594 L176.052,119.116 L176.583,118.621 L177.361,117.868 L178.422,116.797 L179.512,115.65 L180.615,114.45 L181.732,113.2 L182.86,111.908 L183.996,110.581 L185.137,109.225 L186.84,107.165 L189.093,104.387 L190.75,102.31 L191.824,100.951 L192.865,99.629 L193.872,98.346 L194.837,97.112 L195.757,95.937 L196.625,94.829 L197.434,93.8 L197.996,93.087 L198.348,92.645 L198.682,92.225 L198.997,91.834 L199.29,91.471 L199.56,91.141 L199.805,90.844 L200.023,90.585 L200.21,90.368 L200.36,90.197 L200.467,90.08 L200.515,90.032 L200.479,90.073 L200.303,90.243 L199.858,90.606 L198.867,91.188 L197.709,91.467 L197.277,91.405 L197.518,91.479 L197.831,91.641 L198.133,91.871 L198.463,92.194 L198.808,92.608 L199.158,93.11 L199.507,93.691 L199.853,94.347 L200.193,95.069 L200.527,95.852 L200.855,96.689 L201.176,97.572 L201.648,98.976 L202.259,100.948 L202.855,102.992 L203.445,105.062 L204.037,107.111 L204.64,109.093 L205.105,110.512 L205.426,111.418 L205.752,112.278 L206.089,113.09 L206.439,113.851 L206.804,114.555 L207.187,115.197 L207.593,115.773 L207.822,116.054 L207.822,116.054 C207.83,116.063 207.839,116.073 207.847,116.083 L207.847,116.083 L208.089,116.352 L208.616,116.895 L209.174,117.415 L209.756,117.906 L210.361,118.367 L210.987,118.799 L211.634,119.203 L212.301,119.579 L212.988,119.929 L213.693,120.252 L214.415,120.551 L215.154,120.824 L216.283,121.188 L217.843,121.596 L219.466,121.922 L221.135,122.17 L222.845,122.348 L224.588,122.461 L226.361,122.514 L228.158,122.512 L229.972,122.461 L231.8,122.367 L234.542,122.157 L238.198,121.78 L241.81,121.338 L245.325,120.875 L247.871,120.534 L249.511,120.321 L251.101,120.128 L252.632,119.963 L254.101,119.824 L255.502,119.718 L256.826,119.651 L258.068,119.63 L258.637,119.637 L258.637,119.637 C260.031,119.623 261.995,118.208 263.024,116.476 C264.052,114.744 263.756,113.35 262.363,113.363 L261.67,113.382 L260.275,113.457 L258.824,113.572 L257.321,113.721 L255.768,113.903 L254.171,114.112 L252.535,114.337 L250.867,114.573 L248.313,114.945 L244.83,115.446 L241.301,115.908 L237.756,116.288 L235.112,116.5 L233.376,116.597 L231.661,116.653 L229.973,116.663 L228.317,116.622 L226.698,116.525 L225.123,116.368 L223.597,116.142 L222.123,115.848 L220.696,115.476 L219.664,115.144 L219.002,114.899 L218.358,114.634 L217.731,114.346 L217.121,114.037 L216.53,113.704 L215.959,113.349 L215.406,112.969 L214.874,112.564 L214.362,112.134 L213.872,111.678 L213.395,111.187 L213.153,110.917 L213.178,110.946 L213.033,110.775 L212.711,110.326 L212.388,109.79 L212.068,109.176 L211.753,108.49 L211.442,107.739 L211.135,106.93 L210.835,106.075 L210.39,104.703 L209.804,102.749 L209.221,100.703 L208.633,98.613 L208.032,96.526 L207.41,94.492 L206.923,93.031 L206.585,92.092 L206.235,91.19 L205.87,90.331 L205.489,89.52 L205.089,88.762 L204.666,88.061 L204.214,87.423 L203.726,86.854 L203.191,86.361 L202.591,85.954 L201.966,85.669 L201.723,85.595 L201.723,85.595 C201.593,85.555 201.448,85.534 201.291,85.533 L201.291,85.533 L200.086,85.812 L198.962,86.451 L198.332,86.948 L197.921,87.325 L197.601,87.644 L197.32,87.943 L197.05,88.241 L196.78,88.548 L196.503,88.871 L196.216,89.212 L195.916,89.574 L195.602,89.957 L195.274,90.362 L194.931,90.788 L194.573,91.235 L194.198,91.705 L193.613,92.443 L192.788,93.489 L191.913,94.602 L190.993,95.774 L190.033,96.996 L189.039,98.258 L188.015,99.555 L186.972,100.869 L185.378,102.863 L183.213,105.533 L181.591,107.497 L180.529,108.76 L179.487,109.978 L178.473,111.141 L177.494,112.239 L176.56,113.258 L175.681,114.187 L174.852,115.028 L174.273,115.591 L173.93,115.914 L173.613,116.202 L173.327,116.454 L173.076,116.667 L172.864,116.84 L172.695,116.971 L172.515,117.099 L172.346,117.208 L172.483,117.123 L172.437,117.159 L172.223,117.29 L172.042,117.389 L171.878,117.465 L171.719,117.523 L171.556,117.562 L171.381,117.58 L171.193,117.571 L170.995,117.53 L170.788,117.452 L170.578,117.332 L170.368,117.169 L170.161,116.962 L169.961,116.71 L169.769,116.415 L169.588,116.077 L169.419,115.699 L169.261,115.281 L169.117,114.826 L168.985,114.336 L168.866,113.813 L168.762,113.268 L168.625,112.391 L168.48,111.118 L168.38,109.757 L168.32,108.323 L168.295,106.83 L168.301,105.293 L168.327,103.736 L168.402,101.368 L168.494,99.021 L168.543,97.501 L168.591,96.023 L168.623,94.605 L168.616,93.271 L168.596,92.016 L168.557,90.858 L168.487,90.074 L168.433,89.581 L168.371,89.115 L168.301,88.676 L168.222,88.266 L168.13,87.883 L168.021,87.527 L167.891,87.196 L167.727,86.891 L167.54,86.646 L167.476,86.587 L167.476,86.587 C167.416,86.519 167.343,86.463 167.259,86.421 L167.259,86.421 L166.399,86.366 L165.372,86.805 L164.793,87.219 L164.432,87.534 L164.158,87.803 L163.917,88.06 L163.686,88.32 L163.452,88.593 L163.211,88.884 L162.959,89.195 L162.695,89.527 L162.417,89.881 L162.125,90.257 L161.818,90.656 L161.329,91.289 L160.621,92.192 L159.861,93.165 L159.056,94.2 L158.199,95.285 L157.305,96.412 L156.378,97.571 L154.933,99.347 L152.94,101.743 L150.922,104.105 L149.414,105.798 L148.438,106.868 L147.493,107.882 L146.588,108.828 L145.728,109.689 L144.928,110.455 L144.193,111.126 L143.692,111.557 L143.404,111.793 L143.148,111.993 L142.928,112.155 L142.75,112.278 L142.619,112.362 L142.539,112.408 L142.513,112.423 L142.537,112.418 L142.529,112.424 L142.425,112.441 L142.52,112.424 L142.23,112.456 L141.635,112.5 L141.074,112.512 L140.545,112.491 L140.048,112.441 L139.579,112.36 L139.138,112.252 L138.722,112.115 L138.331,111.951 L137.964,111.761 L137.619,111.544 L137.295,111.302 L136.993,111.034 L136.71,110.741 L136.448,110.425 L136.204,110.084 L135.978,109.72 L135.771,109.334 L135.58,108.926 L135.411,108.507 L135.182,107.836 L134.918,106.867 L134.709,105.831 L134.55,104.735 L134.434,103.588 L134.355,102.408 L134.264,100.58 L134.202,98.067 L134.146,95.554 L134.06,93.721 L133.969,92.53 L133.844,91.376 L133.679,90.265 L133.458,89.209 L133.178,88.229 L132.926,87.545 L132.73,87.105 L132.512,86.686 L132.27,86.29 L132.002,85.919 L131.706,85.576 L131.379,85.261 L131.042,84.993 L130.891,84.893 L130.891,84.893 C130.875,84.881 130.858,84.87 130.841,84.86 L130.841,84.86 L130.566,84.707 L130.041,84.497 L129.464,84.369 L128.831,84.331 L128.147,84.389 L127.423,84.546 L126.672,84.797 L125.912,85.133 L125.157,85.541 L124.42,86.008 L123.706,86.522 L123.018,87.071 L122.353,87.649 L121.708,88.253 L121.081,88.88 L120.467,89.528 L119.863,90.197 L119.249,90.907 L118.356,91.993 L117.192,93.482 L116.026,95.044 L114.861,96.673 L113.685,98.357 L112.505,100.086 L111.323,101.856 L109.558,104.534 L107.232,108.097 L105.521,110.709 L104.409,112.39 L103.326,114.004 L102.279,115.536 L101.272,116.965 L100.308,118.286 L99.612,119.189 L99.178,119.733 L98.768,120.233 L98.384,120.684 L98.031,121.083 L97.713,121.425 L97.439,121.705 L97.214,121.915 L97.05,122.056 L96.957,122.129 L96.941,122.144 L96.89,122.175 L96.724,122.257 L96.938,122.15 L97.068,122.099 L97.121,122.1 L97.158,122.113 L97.153,122.13 L97.104,122.133 L97.018,122.101 L96.91,122.019 L96.798,121.873 L96.687,121.666 L96.584,121.397 L96.494,121.067 L96.42,120.678 L96.365,120.234 L96.327,119.736 L96.31,119.189 L96.319,118.589 L96.357,117.939 L96.414,117.248 L96.49,116.518 L96.584,115.751 L96.695,114.95 L96.823,114.125 L97.074,112.811 L97.461,110.961 L97.897,109.028 L98.363,107.034 L98.855,105.002 L99.543,101.934 L100.168,98.895 L100.543,96.913 L100.882,94.981 L101.193,93.106 L101.471,91.307 L101.711,89.598 L101.87,88.384 L101.96,87.606 L102.042,86.855 L102.116,86.132 L102.175,85.442 L102.223,84.782 L102.259,84.152 L102.284,83.552 L102.294,82.981 L102.286,82.437 L102.257,81.915 L102.202,81.409 L102.107,80.906 L101.944,80.396 L101.648,79.873 L101.227,79.473 L101.166,79.438 L101.166,79.438 C100.986,79.319 100.774,79.237 100.534,79.194 L100.534,79.194 L98.907,79.353 L97.317,80.084 L96.372,80.723 L95.724,81.243 L95.199,81.71 L94.722,82.166 L94.257,82.634 L93.787,83.126 L93.301,83.649 L92.794,84.208 L92.265,84.803 L91.711,85.437 L91.134,86.11 L90.532,86.818 L89.906,87.564 L89.256,88.344 L88.586,89.159 L87.89,90.005 L87.172,90.879 L86.432,91.78 L85.664,92.703 L84.875,93.656 L83.666,95.127 L82.01,97.155 L80.295,99.247 L78.549,101.394 L76.78,103.588 L74.123,106.916 L71.493,110.246 L69.771,112.451 L68.092,114.625 L66.47,116.747 L65.3,118.299 L64.545,119.315 L63.81,120.311 L63.096,121.286 L62.407,122.237 L61.742,123.164 L61.102,124.064 L60.5,124.938 L59.927,125.783 L59.385,126.596 L58.873,127.377 L58.393,128.125 L57.947,128.839 L57.539,129.518 L57.19,130.164 L56.876,130.774 L56.596,131.351 L56.352,131.899 L56.146,132.423 L56.052,132.864 L56.108,132.978 C55.861,133.741 56.284,134.146 57.053,133.882 C57.822,133.618 58.645,132.785 58.892,132.022 L58.892,132.022" fill="#F00000"/>
    <path d="M49.094,246.082 L49.075,245.777 L49.081,245.141 L49.138,244.452 L49.245,243.704 L49.401,242.9 L49.59,242.048 L49.816,241.149 L50.085,240.2 L50.397,239.204 L50.748,238.162 L51.139,237.08 L51.568,235.957 L52.033,234.798 L52.517,233.609 L53.028,232.389 L53.571,231.139 L54.144,229.861 L54.746,228.558 L55.374,227.233 L56.028,225.887 L57.045,223.831 L58.469,221.044 L59.965,218.229 L61.525,215.395 L63.127,212.565 L64.77,209.757 L66.44,206.992 L68.126,204.289 L69.814,201.672 L71.498,199.16 L73.159,196.778 L74.365,195.111 L75.145,194.062 L75.92,193.042 L76.677,192.072 L77.411,191.156 L78.119,190.301 L78.797,189.507 L79.441,188.783 L80.051,188.136 L80.615,187.57 L81.122,187.09 L81.562,186.705 L81.926,186.419 L82.195,186.241 L82.356,186.172 L82.391,186.21 L82.291,186.343 L82.056,186.543 L81.707,186.769 L81.294,186.973 L80.88,187.121 L80.528,187.2 L80.244,187.186 L80.007,187.109 L80.13,187.172 L80.095,187.211 L80.032,187.239 L80.024,187.312 L80.052,187.44 L80.102,187.627 L80.165,187.875 L80.233,188.182 L80.302,188.547 L80.389,188.95 L80.5,189.387 L80.612,189.869 L80.781,190.69 L81.02,191.898 L81.26,193.237 L81.516,194.699 L81.794,196.266 L82.097,197.926 L82.442,199.66 L82.832,201.456 L83.277,203.3 L83.789,205.177 L84.375,207.073 L85.046,208.977 L85.812,210.872 L86.683,212.746 L87.416,214.143 L87.946,215.065 L88.501,215.962 L89.09,216.844 L89.713,217.71 L90.372,218.558 L91.068,219.385 L91.803,220.192 L92.576,220.975 L93.391,221.732 L94.247,222.463 L95.147,223.165 L96.091,223.837 L97.081,224.476 L98.118,225.081 L99.203,225.65 L100.337,226.181 L101.521,226.673 L102.756,227.126 L104.043,227.535 L105.384,227.9 L106.779,228.219 L108.23,228.489 L109.736,228.71 L110.532,228.805 L110.532,228.805 C110.551,228.808 110.571,228.81 110.591,228.813 L110.591,228.813 L111.033,228.852 L112.021,228.897 L113.047,228.879 L114.078,228.79 L115.119,228.625 L116.172,228.383 L117.239,228.058 L118.32,227.647 L119.411,227.149 L120.504,226.564 L121.59,225.898 L122.657,225.157 L123.692,224.354 L124.684,223.501 L125.628,222.611 L126.518,221.697 L127.357,220.766 L128.147,219.825 L128.893,218.876 L129.598,217.923 L130.561,216.526 L131.774,214.622 L132.93,212.663 L134.024,210.692 L135.083,208.713 L136.143,206.725 L137.707,203.764 L139.774,199.877 L141.311,197.11 L142.316,195.396 L143.326,193.769 L144.332,192.274 L145.315,190.941 L145.989,190.113 L146.392,189.655 L146.816,189.201 L147.216,188.805 L147.593,188.465 L147.944,188.179 L148.271,187.942 L148.579,187.745 L148.873,187.581 L149.167,187.441 L149.473,187.315 L149.803,187.201 L150.169,187.1 L150.579,187.014 L150.718,187 L150.553,187.041 L150.919,186.973 L151.409,186.927 L151.852,186.927 L152.329,186.957 L152.833,187.021 L153.358,187.121 L153.897,187.259 L154.448,187.436 L155.003,187.649 L155.559,187.899 L156.11,188.19 L156.655,188.514 L157.193,188.869 L157.721,189.253 L158.236,189.663 L158.738,190.098 L158.97,190.313 L158.936,190.286 L159.134,190.473 L159.449,190.816 L159.729,191.162 L159.993,191.53 L160.378,192.139 L160.84,193.013 L161.251,193.945 L161.632,194.944 L162.176,196.568 L162.882,198.858 L163.459,200.639 L163.901,201.857 L164.398,203.058 L164.98,204.23 L165.654,205.367 L166.245,206.206 L166.687,206.752 L166.931,207.029 L166.931,207.029 C166.94,207.039 166.95,207.048 166.959,207.058 L166.959,207.058 L167.368,207.51 L168.217,208.412 L169.082,209.288 L169.955,210.13 L170.841,210.929 L171.737,211.691 L173.081,212.761 L174.894,214.07 L176.745,215.243 L178.62,216.272 L180.51,217.164 L182.415,217.918 L184.338,218.53 L186.281,218.997 L187.78,219.259 L188.8,219.388 L189.795,219.476 L190.797,219.527 L191.807,219.539 L192.823,219.512 L193.85,219.444 L194.888,219.333 L195.939,219.174 L197.004,218.97 L198.083,218.717 L199.177,218.413 L200.29,218.055 L201.421,217.639 L202.57,217.162 L203.738,216.62 L204.923,216.01 L206.123,215.331 L207.333,214.579 L208.549,213.754 L209.762,212.859 L210.963,211.895 L212.146,210.867 L213.3,209.784 L214.417,208.652 L215.49,207.481 L216.511,206.28 L217.481,205.052 L218.393,203.809 L219.249,202.553 L220.049,201.286 L220.795,200.014 L221.489,198.736 L222.134,197.452 L222.732,196.164 L223.284,194.869 L223.793,193.567 L224.261,192.256 L224.691,190.936 L225.084,189.603 L225.442,188.259 L225.765,186.9 L225.924,186.168 L225.924,186.168 C226.698,182.423 224.003,180.879 219.903,182.719 C215.803,184.559 211.851,189.087 211.076,192.832 L210.992,193.275 L210.792,194.223 L210.576,195.126 L210.347,195.982 L210.107,196.791 L209.86,197.55 L209.606,198.259 L209.352,198.915 L209.099,199.518 L208.851,200.065 L208.61,200.558 L208.38,200.996 L208.165,201.38 L207.967,201.713 L207.786,201.998 L207.627,202.238 L207.484,202.443 L207.357,202.616 L207.24,202.768 L207.126,202.907 L207.011,203.038 L206.883,203.172 L206.736,203.312 L206.564,203.46 L206.357,203.619 L206.113,203.787 L205.828,203.962 L205.502,204.142 L205.132,204.324 L204.721,204.503 L204.27,204.676 L203.779,204.84 L203.253,204.991 L202.693,205.126 L202.102,205.244 L201.48,205.344 L200.831,205.422 L200.156,205.477 L199.46,205.506 L198.743,205.508 L198.007,205.483 L197.285,205.433 L196.151,205.304 L194.554,205.017 L192.909,204.612 L191.227,204.083 L189.518,203.424 L187.789,202.633 L186.042,201.716 L184.268,200.663 L182.934,199.783 L182.052,199.159 L181.168,198.504 L180.279,197.822 L179.392,197.106 L178.499,196.347 L178.041,195.942 L178.069,195.971 L177.912,195.834 L177.585,195.524 L177.109,195.006 L176.5,194.218 L175.935,193.353 L175.394,192.428 L174.885,191.453 L174.136,189.875 L173.132,187.675 L172.323,186.025 L171.722,184.93 L171.054,183.865 L170.317,182.864 L169.708,182.161 L169.258,181.704 L168.779,181.269 L168.289,180.876 L168.064,180.714 L168.064,180.714 C168.052,180.705 168.041,180.696 168.03,180.687 L168.03,180.687 L167.682,180.448 L166.994,180.007 L166.284,179.592 L165.55,179.205 L164.794,178.849 L164.016,178.526 L163.215,178.239 L162.396,177.984 L161.551,177.771 L160.681,177.605 L159.781,177.488 L158.851,177.427 L157.886,177.428 L156.883,177.496 L155.837,177.642 L154.831,177.855 L154.447,177.959 L154.447,177.959 C154.392,177.971 154.337,177.985 154.282,178 L154.281,178 L153.616,178.202 L152.445,178.625 L151.271,179.132 L150.099,179.724 L148.939,180.397 L147.802,181.143 L146.7,181.953 L145.644,182.811 L144.639,183.707 L143.689,184.629 L142.792,185.569 L141.946,186.519 L141.149,187.476 L140.358,188.49 L139.282,189.973 L138.004,191.9 L136.824,193.841 L135.71,195.796 L134.644,197.783 L133.148,200.727 L131.251,204.597 L129.856,207.435 L128.929,209.25 L127.977,210.989 L127.025,212.624 L126.09,214.128 L125.154,215.516 L124.462,216.458 L124.04,216.996 L123.639,217.48 L123.26,217.908 L122.907,218.28 L122.582,218.599 L122.284,218.868 L122.007,219.098 L121.745,219.296 L121.484,219.473 L121.212,219.636 L120.915,219.789 L120.582,219.933 L120.203,220.067 L119.774,220.183 L119.292,220.276 L118.759,220.337 L118.176,220.36 L117.545,220.337 L116.834,220.257 L116.409,220.187 L116.468,220.195 L115.829,220.071 L114.549,219.785 L113.322,219.459 L112.147,219.094 L111.022,218.691 L109.946,218.253 L108.918,217.78 L107.937,217.272 L107.001,216.732 L106.108,216.161 L105.258,215.561 L104.449,214.932 L103.68,214.277 L102.95,213.596 L102.258,212.89 L101.602,212.162 L100.981,211.412 L100.395,210.642 L99.842,209.852 L99.321,209.044 L98.83,208.22 L98.37,207.38 L97.939,206.527 L97.54,205.673 L96.988,204.366 L96.33,202.574 L95.764,200.755 L95.277,198.923 L94.863,197.086 L94.513,195.257 L94.214,193.446 L93.96,191.663 L93.742,189.919 L93.544,188.226 L93.363,186.589 L93.184,185.021 L92.993,183.529 L92.786,182.129 L92.6,181.155 L92.461,180.523 L92.306,179.915 L92.111,179.346 L91.879,178.815 L91.624,178.305 L91.339,177.817 L91.016,177.354 L90.642,176.919 L90.202,176.521 L89.672,176.172 L89.136,175.931 L88.993,175.891 L88.993,175.891 C88.917,175.862 88.838,175.836 88.756,175.814 L88.756,175.814 L88.096,175.698 L86.942,175.701 L85.664,175.937 L84.327,176.388 L82.996,177.017 L81.723,177.77 L80.533,178.601 L79.43,179.478 L78.404,180.384 L77.441,181.313 L76.53,182.261 L75.656,183.233 L74.812,184.226 L73.99,185.245 L73.183,186.292 L72.379,187.365 L71.583,188.467 L70.791,189.601 L70.004,190.764 L69.221,191.957 L68.439,193.18 L67.648,194.449 L66.475,196.389 L64.939,199.036 L63.415,201.769 L61.904,204.573 L60.42,207.434 L58.971,210.335 L57.565,213.257 L56.209,216.186 L54.922,219.1 L53.702,221.986 L52.562,224.815 L51.769,226.891 L51.274,228.255 L50.803,229.596 L50.357,230.913 L49.937,232.202 L49.544,233.464 L49.18,234.694 L48.85,235.888 L48.566,237.042 L48.313,238.157 L48.092,239.232 L47.904,240.264 L47.751,241.251 L47.633,242.191 L47.553,243.082 L47.518,243.917 L47.534,244.692 L47.59,245.409 L47.686,246.068 L47.823,246.658 L47.906,246.918 C47.906,246.918 47.906,246.918 47.906,246.918 C47.949,247.155 48.249,247.16 48.577,246.929 C48.905,246.698 49.137,246.319 49.094,246.082 L49.094,246.082" fill="#000000"/>
    <path d="M696.719,216.14 C696.719,225.077 701.361,227.82 673.587,225.789 C595.169,220.054 557.688,201.094 524.513,202.982 C456.177,206.869 465.645,343.358 415,352 C331.809,366.196 339,214.678 245,226.707 C225.782,229.166 201.814,239.521 198.091,243.333 C192.85,248.699 192.653,254.367 192.95,260" filter="url(#Shadow_1)" fill="rgba(0,0,0,0.65)"/>
    <path d="M36.466,401.5 L184.5,401.5 L184.5,496.5 L36.466,496.5 L36.466,401.5 z" fill-opacity="0" stroke="#000000" stroke-width="1"/>
    <path d="M48.466,526.5 L172.5,526.5 C179.127,526.5 184.5,531.873 184.5,538.5 L184.5,589.5 C184.5,596.127 179.127,601.5 172.5,601.5 L48.466,601.5 C41.839,601.5 36.466,596.127 36.466,589.5 L36.466,538.5 C36.466,531.873 41.839,526.5 48.466,526.5 z" fill-opacity="0" stroke="#000000" stroke-width="1"/>
    <path d="M308.984,550.5 C299.31,550.5 291.468,543.113 291.468,534 C291.468,524.887 299.31,517.5 308.984,517.5 C318.658,517.5 326.5,524.887 326.5,534 C326.5,543.113 318.658,550.5 308.984,550.5 z" fill-opacity="0" stroke="#000000" stroke-width="1"/>
    <path d="M373.615,547.085 L361.73,526.5 L373.615,505.915 L397.385,505.915 L409.27,526.5 L397.385,547.085 z" fill-opacity="0" stroke="#000000" stroke-width="1"/>
    <path d="M407.314,603.818 L470.314,543.095 L483.986,503.17 L528.904,490.755 L596.914,434.444 L561.675,487.494 L590.036,492.616 L523.339,537.818 L472.857,597.295 L466.875,572.181 z" fill-opacity="0" stroke="#000000" stroke-width="1"/>
  </g>
</svg>
