<?xml version="1.0" encoding="utf-8"?>
<!DOCTYPE svg PUBLIC "-//W3C//DTD SVG 1.1//EN" "http://www.w3.org/Graphics/SVG/1.1/DTD/svg11.dtd">
<svg width="980px" height="599px" viewBox="0 0 980 599" style="background:rgb(253.98,253.98,239.7)" xmlns="http://www.w3.org/2000/svg" xmlns:xlink="http://www.w3.org/1999/xlink" version="1.1">
<g id="1" transform="matrix(1,0,0,1,0,0)">
<text x="0" y="0" font-family="Bravura" font-style="normal" font-weight="normal" font-size="24" fill="rgb(0,0,0)" fill-opacity="1" transform="matrix(1,0,0,1,22,49.959999084472656)" ></text>
<text x="0" y="0" font-family="Bravura" font-style="normal" font-weight="normal" font-size="24" fill="rgb(0,0,0)" fill-opacity="1" transform="matrix(1,0,0,1,22,169.9600067138672)" ></text>
<text x="0" y="0" font-family="Bravura" font-style="normal" font-weight="normal" font-size="24" fill="rgb(0,0,0)" fill-opacity="1" transform="matrix(1,0,0,1,22,289.9599914550781)" ></text>
<text x="0" y="0" font-family="Bravura" font-style="normal" font-weight="normal" font-size="24" fill="rgb(0,0,0)" fill-opacity="1" transform="matrix(1,0,0,1,22,409.9599914550781)" ></text>
<text x="0" y="0" font-family="Bravura" font-style="normal" font-weight="normal" font-size="24" fill="rgb(0,0,0)" fill-opacity="1" transform="matrix(1,0,0,1,22,529.9600219726562)" ></text>
<path d="M20 91 L960 91 M20 85 L960 85 M20 79 L960 79 M20 73 L960 73 M20 67 L960 67 M20 55 L960 55 M20 49 L960 49 M20 43 L960 43 M20 37 L960 37 M20 31 L960 31 M20 211 L960 211 M20 205 L960 205 M20 199 L960 199 M20 193 L960 193 M20 187 L960 187 M20 175 L960 175 M20 169 L960 169 M20 163 L960 163 M20 157 L960 157 M20 151 L960 151 M20 331 L960 331 M20 325 L960 325 M20 319 L960 319 M20 313 L960 313 M20 307 L960 307 M20 295 L960 295 M20 289 L960 289 M20 283 L960 283 M20 277 L960 277 M20 271 L960 271 M20 451 L960 451 M20 445 L960 445 M20 439 L960 439 M20 433 L960 433 M20 427 L960 427 M20 415 L960 415 M20 409 L960 409 M20 403 L960 403 M20 397 L960 397 M20 391 L960 391 M20 571 L960 571 M20 565 L960 565 M20 559 L960 559 M20 553 L960 553 M20 547 L960 547 M20 535 L960 535 M20 529 L960 529 M20 523 L960 523 M20 517 L960 517 M20 511 L960 511 " stroke="rgb(0,0,0)" stroke-width="0.4" fill="rgb(0,0,0)" transform="matrix(1,0,0,1,0,0)"/>
<rect x="960" y="31" width="0.6" height="540" fill="rgb(0,0,0)" stroke="none" stroke-width="0.4" fill-opacity="1.0" stroke-opacity="1.0" transform="matrix(1,0,0,1,0,0)"/>
<rect x="20" y="31" width="0.6" height="540" fill="rgb(0,0,0)" stroke="none" stroke-width="0.4" fill-opacity="1.0" stroke-opacity="1.0" transform="matrix(1,0,0,1,0,0)"/>
<text x="33" y="103" font-family="Bravura" font-size="24" font-style="normal" font-weight="normal" text-decoration="none" fill="rgb(0,0,0)" fill-opacity="1" transform="matrix(1,0,0,1,-10.5,-29.5)"> </text>
<text x="33" y="103" font-family="Bravura" font-size="24" font-style="normal" font-weight="normal" text-decoration="none" fill="rgb(0,0,0)" fill-opacity="1" transform="matrix(1,0,0,1,-10.5,90)"> </text>
<text x="33" y="103" font-family="Bravura" font-size="24" font-style="normal" font-weight="normal" text-decoration="none" fill="rgb(0,0,0)" fill-opacity="1" transform="matrix(1,0,0,1,-10.5,210)"> </text>
<text x="33" y="103" font-family="Bravura" font-size="24" font-style="normal" font-weight="normal" text-decoration="none" fill="rgb(0,0,0)" fill-opacity="1" transform="matrix(1,0,0,1,-10.5,330)"> </text>
<text x="33" y="103" font-family="Bravura" font-size="24" font-style="normal" font-weight="normal" text-decoration="none" fill="rgb(0,0,0)" fill-opacity="1" transform="matrix(1,0,0,1,-10.5,450)"> </text>
</g>
</svg>
